<?xml version="1.0" encoding="UTF-8" standalone="no"?>
<svg
   xmlns:dc="http://purl.org/dc/elements/1.1/"
   xmlns:cc="http://creativecommons.org/ns#"
   xmlns:rdf="http://www.w3.org/1999/02/22-rdf-syntax-ns#"
   xmlns:svg="http://www.w3.org/2000/svg"
   xmlns="http://www.w3.org/2000/svg"
   xmlns:sodipodi="http://sodipodi.sourceforge.net/DTD/sodipodi-0.dtd"
   xmlns:inkscape="http://www.inkscape.org/namespaces/inkscape"
   viewBox="0 0 20 20"
   height="20"
   width="20"
   id="svg2"
   version="1.1"
   inkscape:version="0.91 r13725"
   sodipodi:docname="melb-bicycle-share-15.svg">
  <metadata
     id="metadata16">
    <rdf:RDF>
      <cc:Work
         rdf:about="">
        <dc:format>image/svg+xml</dc:format>
        <dc:type
           rdf:resource="http://purl.org/dc/dcmitype/StillImage" />
        <dc:title>bicycle-share-15.svg</dc:title>
      </cc:Work>
    </rdf:RDF>
  </metadata>
  <defs
     id="defs14" />
  <sodipodi:namedview
     pagecolor="#ffffff"
     bordercolor="#666666"
     borderopacity="1"
     objecttolerance="10"
     gridtolerance="10"
     guidetolerance="10"
     inkscape:pageopacity="0"
     inkscape:pageshadow="2"
     inkscape:window-width="1195"
     inkscape:window-height="780"
     id="namedview12"
     showgrid="false"
     inkscape:zoom="33.37544"
     inkscape:cx="10.248939"
     inkscape:cy="13.716925"
     inkscape:window-x="173"
     inkscape:window-y="36"
     inkscape:window-maximized="0"
     inkscape:current-layer="svg2" />
  <title
     id="title4">bicycle-share-15.svg</title>
  <rect
     fill="none"
     x="0"
     y="0"
     width="20"
     height="20"
     id="rect6" />
  <path
     fill="rgba(255,255,255,0.5)"
     transform="translate(2 2)"
     d="  M10,1C9.4477,1,9,1.4477,9,2c0,0.5523,0.4477,1,1,1s1-0.4477,1-1C11,1.4477,10.5523,1,10,1z M8.1445,2.9941  c-0.13,0.0005-0.2547,0.0517-0.3477,0.1426l-2.6406,2.5c-0.2256,0.2128-0.2051,0.5775,0.043,0.7637L7,7.75v2.75  c-0.01,0.6762,1.0096,0.6762,1,0v-3c0.0003-0.1574-0.0735-0.3057-0.1992-0.4004L7.0332,6.5234l1.818-1.7212l0.7484,0.9985  C9.6943,5.9265,9.8426,6.0003,10,6h1.5c0.6761,0.01,0.6761-1.0096,0-1h-1.25L9.5,4L8.9004,3.1992  C8.8103,3.0756,8.6685,3,8.5156,2.9941H8.1445z M3,7c-1.6569,0-3,1.3432-3,3s1.3431,3,3,3s3-1.3432,3-3S4.6569,7,3,7z M12,7  c-1.6569,0-3,1.3432-3,3s1.3431,3,3,3s3-1.3432,3-3S13.6569,7,12,7z M3,8c1.1046,0,2,0.8954,2,2s-0.8954,2-2,2s-2-0.8954-2-2  S1.8954,8,3,8z M12,8c1.1046,0,2,0.8954,2,2s-0.8954,2-2,2s-2-0.8954-2-2S10.8954,8,12,8z"
     style="stroke-linejoin:round;stroke-miterlimit:4px;"
     stroke="rgba(255,255,255,0.5)"
     stroke-width="1"
     id="path8" />
  <path
     fill="#206620"
     transform="translate(2 2)"
     d="  M10,1C9.4477,1,9,1.4477,9,2c0,0.5523,0.4477,1,1,1s1-0.4477,1-1C11,1.4477,10.5523,1,10,1z M8.1445,2.9941  c-0.13,0.0005-0.2547,0.0517-0.3477,0.1426l-2.6406,2.5c-0.2256,0.2128-0.2051,0.5775,0.043,0.7637L7,7.75v2.75  c-0.01,0.6762,1.0096,0.6762,1,0v-3c0.0003-0.1574-0.0735-0.3057-0.1992-0.4004L7.0332,6.5234l1.818-1.7212l0.7484,0.9985  C9.6943,5.9265,9.8426,6.0003,10,6h1.5c0.6761,0.01,0.6761-1.0096,0-1h-1.25L9.5,4L8.9004,3.1992  C8.8103,3.0756,8.6685,3,8.5156,2.9941H8.1445z M3,7c-1.6569,0-3,1.3432-3,3s1.3431,3,3,3s3-1.3432,3-3S4.6569,7,3,7z M12,7  c-1.6569,0-3,1.3432-3,3s1.3431,3,3,3s3-1.3432,3-3S13.6569,7,12,7z M3,8c1.1046,0,2,0.8954,2,2s-0.8954,2-2,2s-2-0.8954-2-2  S1.8954,8,3,8z M12,8c1.1046,0,2,0.8954,2,2s-0.8954,2-2,2s-2-0.8954-2-2S10.8954,8,12,8z"
     id="path10"
     style="fill:#0046ae;fill-opacity:1" />
  <g
     id="g4167"
     transform="matrix(1.3042018,0,0,1.3036614,-1.0265231,-1.3067166)">
    <path
       sodipodi:nodetypes="ccccccccc"
       inkscape:connector-curvature="0"
       id="path4144"
       d="m 2.201036,3.3165064 1.7737909,1.1672404 1.9605057,-1.1336507 0,3.5185159 -0.8487038,0 0.00849,-1.9146101 L 3.9663396,5.525026 2.1925487,4.3745804 Z"
       style="fill:#0046ae;fill-opacity:1;fill-rule:evenodd;stroke:none;stroke-width:1px;stroke-linecap:butt;stroke-linejoin:miter;stroke-opacity:1" />
    <path
       sodipodi:nodetypes="ccccc"
       inkscape:connector-curvature="0"
       id="path4146"
       d="m 2.201036,4.7944511 0.7553464,0.5374343 0,1.5367266 -0.7553464,-10e-8 z"
       style="fill:#0046ae;fill-opacity:1;fill-rule:evenodd;stroke:none;stroke-width:1px;stroke-linecap:butt;stroke-linejoin:miter;stroke-opacity:1" />
  </g>
</svg>
