<?xml version="1.0" encoding="utf-8"?>
<!-- Generator: Adobe Illustrator 20.0.0, SVG Export Plug-In . SVG Version: 6.00 Build 0)  -->
<svg version="1.1" id="Layer_1" xmlns="http://www.w3.org/2000/svg" xmlns:xlink="http://www.w3.org/1999/xlink" x="0px" y="0px"
	 width="32.2px" height="24px" viewBox="0 0 32.2 24" enable-background="new 0 0 32.2 24" xml:space="preserve">
<path fill="none" stroke="#1B1464" stroke-width="1.5" stroke-miterlimit="10" d="M-0.1,1.9c2.1,2.1,6,2.1,8.1,0
	c2.1,2.1,5.9,2.1,8,0c2.1,2.1,5.9,2.1,8,0c2.1,2.1,6,2.1,8.1,0"/>
<path fill="none" stroke="#1B1464" stroke-width="1.5" stroke-miterlimit="10" d="M0,9.4c1.5,0,3-0.5,4-1.6c2.1,2.1,5.9,2.1,8,0
	c1,1,2.5,1.5,4,1.6c1.5,0,3-0.5,4-1.6c2.1,2.1,5.9,2.1,8,0c1,1,2.5,1.5,4,1.6"/>
<path fill="none" stroke="#1B1464" stroke-width="1.5" stroke-miterlimit="10" d="M-0.1,13.9c2.1,2.1,6,2.1,8.1,0
	c2.1,2.1,5.9,2.1,8,0c2.1,2.1,5.9,2.1,8,0c2.1,2.1,6,2.1,8.1,0"/>
<path fill="none" stroke="#1B1464" stroke-width="1.5" stroke-miterlimit="10" d="M0,21.4c1.5,0,3-0.5,4-1.6c2.1,2.1,5.9,2.1,8,0
	c1,1,2.5,1.5,4,1.6c1.5,0,3-0.5,4-1.6c2.1,2.1,5.9,2.1,8,0c1,1,2.5,1.5,4,1.6"/>
</svg>
