<?xml version="1.0" encoding="UTF-8" standalone="no"?>
<!-- Generator: Adobe Illustrator 20.0.0, SVG Export Plug-In . SVG Version: 6.00 Build 0)  -->

<svg
   xmlns:dc="http://purl.org/dc/elements/1.1/"
   xmlns:cc="http://creativecommons.org/ns#"
   xmlns:rdf="http://www.w3.org/1999/02/22-rdf-syntax-ns#"
   xmlns:svg="http://www.w3.org/2000/svg"
   xmlns="http://www.w3.org/2000/svg"
   xmlns:sodipodi="http://sodipodi.sourceforge.net/DTD/sodipodi-0.dtd"
   xmlns:inkscape="http://www.inkscape.org/namespaces/inkscape"
   version="1.1"
   x="0px"
   y="0px"
   width="20px"
   height="20px"
   viewBox="0 0 20 20"
   style="enable-background:new 0 0 20 20;"
   xml:space="preserve"
   id="svg2"
   inkscape:version="0.91 r13725"
   sodipodi:docname="bicycle-repair-15.svg"><metadata
     id="metadata20"><rdf:RDF><cc:Work
         rdf:about=""><dc:format>image/svg+xml</dc:format><dc:type
           rdf:resource="http://purl.org/dc/dcmitype/StillImage" /></cc:Work></rdf:RDF></metadata><defs
     id="defs18" /><sodipodi:namedview
     pagecolor="#ffffff"
     bordercolor="#666666"
     borderopacity="1"
     objecttolerance="10"
     gridtolerance="10"
     guidetolerance="10"
     inkscape:pageopacity="0"
     inkscape:pageshadow="2"
     inkscape:window-width="872"
     inkscape:window-height="606"
     id="namedview16"
     showgrid="false"
     inkscape:zoom="11.8"
     inkscape:cx="10"
     inkscape:cy="10"
     inkscape:window-x="407"
     inkscape:window-y="184"
     inkscape:window-maximized="0"
     inkscape:current-layer="svg2" /><style
     type="text/css"
     id="style4">
	.st0{fill:none;}
	.st1{fill:#206620;}
	.st2{fill:#FFFFFF;}
</style><path
     style="fill:#206620"
     inkscape:connector-curvature="0"
     id="path11"
     d="m 15.7,11 c 0.1,-0.5 0.6,-0.9 1.1,-0.8 0,-0.1 0,-0.1 0,-0.2 0,-0.1 0,-0.1 0,-0.2 C 16.3,9.8 15.8,9.5 15.7,9 15.6,8.5 15.9,8 16.4,7.9 16.4,7.8 16.3,7.7 16.3,7.5 15.8,7.7 15.3,7.6 15,7.1 14.7,6.6 14.9,6.1 15.3,5.8 15.2,5.7 15.1,5.6 15.1,5.5 14.7,5.9 14.2,5.9 13.8,5.6 13.4,5.3 13.3,4.7 13.6,4.3 13.5,4.2 13.4,4.2 13.3,4.1 13,4.5 12.5,4.8 12,4.6 11.5,4.4 11.3,3.9 11.4,3.4 11.3,3.4 11.2,3.4 11,3.3 11,3.8 10.5,4.2 10,4.2 9.5,4.2 9.1,3.8 9,3.3 8.9,3.3 8.7,3.3 8.6,3.4 8.7,3.9 8.5,4.4 8,4.6 7.5,4.8 7,4.5 6.8,4.1 6.7,4.1 6.6,4.2 6.5,4.3 6.8,4.7 6.7,5.3 6.3,5.6 5.9,5.9 5.3,5.9 5,5.5 4.9,5.6 4.8,5.7 4.7,5.8 5.1,6.1 5.3,6.7 5,7.1 4.8,7.6 4.2,7.7 3.7,7.5 3.7,7.6 3.6,7.7 3.6,7.9 4.1,8 4.4,8.5 4.3,9 4.2,9.5 3.8,9.9 3.3,9.8 c 0,0.1 0,0.1 0,0.2 0,0.1 0,0.1 0,0.2 0.5,0 1,0.3 1.1,0.8 0.1,0.5 -0.2,1 -0.7,1.1 0,0.1 0.1,0.2 0.1,0.4 0.5,-0.2 1,-0.1 1.3,0.4 0.3,0.5 0.1,1 -0.3,1.3 0.1,0.1 0.2,0.2 0.2,0.3 0.4,-0.4 0.9,-0.4 1.3,-0.1 0.4,0.3 0.5,0.9 0.2,1.3 0.1,0.1 0.2,0.1 0.3,0.2 0.2,-0.4 0.7,-0.7 1.2,-0.5 0.5,0.2 0.7,0.7 0.6,1.2 0.1,0 0.2,0 0.4,0.1 0,-0.5 0.5,-0.9 1,-0.9 0.5,0 0.9,0.4 1,0.9 0.1,0 0.3,0 0.4,-0.1 -0.1,-0.5 0.1,-1 0.6,-1.2 0.5,-0.2 1,0.1 1.2,0.5 0.1,-0.1 0.2,-0.1 0.3,-0.2 -0.3,-0.4 -0.2,-1 0.2,-1.3 0.4,-0.3 1,-0.3 1.3,0.1 0.1,-0.1 0.2,-0.2 0.2,-0.3 -0.4,-0.3 -0.6,-0.9 -0.3,-1.3 0.3,-0.5 0.8,-0.6 1.3,-0.4 0,-0.1 0.1,-0.2 0.1,-0.4 C 15.9,12 15.6,11.5 15.7,11 Z"
     class="st1" /><g
     id="Layer_2"
     style="fill:#ffffff;fill-opacity:1"><path
       class="st2"
       d="M12.8,8.6c-0.5-1-1.6-1.8-2.8-1.8C9.4,6.8,8.9,7,8.4,7.3l2.9,1.9l-0.1,1.6l-1.4,0.8L6.8,9.7c0,0.1,0,0.2,0,0.3   c0,1.8,1.4,3.2,3.2,3.2c1.2,0,2.3-0.7,2.8-1.8h2.9c0-0.1-0.1-0.3,0-0.4c0.1-0.5,0.6-0.9,1.1-0.8c0-0.1,0-0.1,0-0.2s0-0.1,0-0.2   c-0.5,0-1-0.3-1.1-0.8c0-0.2,0-0.3,0-0.4H12.8z"
       id="path14"
       style="fill:#ffffff;fill-opacity:1" /></g></svg>